<svg width="33" height="33" viewBox="0 0 33 33" fill="none" xmlns="http://www.w3.org/2000/svg">
<path d="M5.30398 13.5536C5.30398 11.3655 6.17317 9.26711 7.72035 7.71994C9.26752 6.17276 11.3659 5.30357 13.554 5.30357C15.742 5.30357 17.8404 6.17276 19.3876 7.71994C20.9348 9.26711 21.804 11.3655 21.804 13.5536C21.804 15.7416 20.9348 17.84 19.3876 19.3872C17.8404 20.9344 15.742 21.8036 13.554 21.8036C11.3659 21.8036 9.26752 20.9344 7.72035 19.3872C6.17317 17.84 5.30398 15.7416 5.30398 13.5536ZM13.554 3.53571C11.9439 3.53572 10.3576 3.92378 8.92939 4.66703C7.50117 5.41029 6.27314 6.48683 5.34932 7.80546C4.4255 9.12409 3.83311 10.646 3.62234 12.2422C3.41158 13.8383 3.58864 15.4618 4.13853 16.975C4.68841 18.4883 5.59493 19.8467 6.78128 20.9352C7.96763 22.0236 9.39885 22.8102 10.9537 23.2281C12.5086 23.646 14.1413 23.683 15.7134 23.3359C17.2856 22.9889 18.751 22.268 19.9854 21.2343L27.9561 29.205C28.037 29.2918 28.1346 29.3615 28.2431 29.4098C28.3515 29.4581 28.4685 29.4841 28.5872 29.4862C28.7059 29.4883 28.8238 29.4665 28.9339 29.422C29.0439 29.3775 29.1439 29.3114 29.2278 29.2274C29.3118 29.1435 29.378 29.0435 29.4224 28.9335C29.4669 28.8234 29.4887 28.7055 29.4866 28.5868C29.4845 28.4681 29.4585 28.3511 29.4102 28.2426C29.3619 28.1342 29.2923 28.0366 29.2054 27.9557L21.2347 19.985C22.4584 18.5236 23.2398 16.7435 23.4871 14.8535C23.7345 12.9635 23.4375 11.0422 22.6311 9.31517C21.8246 7.58809 20.5422 6.12693 18.9344 5.10321C17.3266 4.07949 15.4601 3.53571 13.554 3.53571Z" fill="#959595"/>
</svg>
